<svg width="512" height="512" viewBox="0 0 512 512" xmlns="http://www.w3.org/2000/svg">
  <defs>
    <linearGradient id="grad" x1="0%" y1="0%" x2="100%" y2="100%">
      <stop offset="0%" style="stop-color:#3b82f6;stop-opacity:1" />
      <stop offset="100%" style="stop-color:#2563eb;stop-opacity:1" />
    </linearGradient>
  </defs>

  <!-- Background -->
  <rect width="512" height="512" rx="115" fill="url(#grad)"/>

  <!-- Chat bubble icon -->
  <g transform="translate(128, 140)">
    <!-- Main bubble -->
    <path d="M 40 0 L 200 0 C 221 0 238 17 238 38 L 238 140 C 238 161 221 178 200 178 L 88 178 L 40 220 L 40 178 L 40 178 C 19 178 2 161 2 140 L 2 38 C 2 17 19 0 40 0 Z"
          fill="white" opacity="0.95"/>

    <!-- Dots representing AI/typing -->
    <circle cx="70" cy="89" r="14" fill="#3b82f6"/>
    <circle cx="120" cy="89" r="14" fill="#3b82f6"/>
    <circle cx="170" cy="89" r="14" fill="#3b82f6"/>
  </g>

  <!-- Small sparkles for "AI" feel -->
  <circle cx="370" cy="120" r="8" fill="white" opacity="0.8"/>
  <circle cx="400" cy="380" r="6" fill="white" opacity="0.6"/>
  <circle cx="100" cy="400" r="5" fill="white" opacity="0.5"/>
</svg>
